<svg width="24" height="24" viewBox="0 0 24 24" fill="none" xmlns="http://www.w3.org/2000/svg">
<path d="M21.7498 5.96017C21.0326 6.26954 20.2521 6.4922 19.4482 6.57892C20.2829 6.08306 20.9079 5.2997 21.206 4.37579C20.4228 4.8417 19.5648 5.16841 18.6701 5.34142C18.2961 4.94163 17.8439 4.62315 17.3414 4.40581C16.839 4.18847 16.2972 4.07693 15.7498 4.07813C13.5349 4.07813 11.7537 5.87345 11.7537 8.07657C11.7537 8.38595 11.7912 8.69532 11.8521 8.99298C8.53572 8.81954 5.57791 7.23517 3.6115 4.80938C3.2532 5.42137 3.06544 6.1182 3.06775 6.82735C3.06775 8.21485 3.77322 9.43829 4.849 10.1578C4.21502 10.1329 3.5959 9.9586 3.04197 9.64923V9.69845C3.04197 11.6414 4.41541 13.2516 6.24587 13.6219C5.90218 13.7112 5.54862 13.7568 5.19353 13.7578C4.93337 13.7578 4.68728 13.732 4.43884 13.6969C4.94509 15.2813 6.41931 16.432 8.17478 16.4695C6.80134 17.5453 5.08103 18.1781 3.21306 18.1781C2.87791 18.1781 2.56853 18.1664 2.24744 18.1289C4.01931 19.2656 6.12165 19.9219 8.38572 19.9219C15.7357 19.9219 19.7576 13.8328 19.7576 8.54767C19.7576 8.37423 19.7576 8.20079 19.7459 8.02735C20.524 7.45782 21.206 6.75235 21.7498 5.96017Z" fill="#0B486B"/>
</svg>
