<svg width="24" height="24" viewBox="0 0 24 24" fill="none" xmlns="http://www.w3.org/2000/svg">
<path d="M19.7864 6.26641C19.9227 6.40703 20 6.59687 20 6.79609V22.25C20 22.6648 19.675 23 19.2727 23H4.72727C4.325 23 4 22.6648 4 22.25V1.75C4 1.33516 4.325 1 4.72727 1H14.3795C14.5727 1 14.7591 1.07969 14.8955 1.22031L19.7864 6.26641ZM18.3227 7.14062L14.0455 2.72969V7.14062H18.3227ZM7.63636 10.7969C7.58814 10.7969 7.5419 10.8166 7.5078 10.8518C7.4737 10.887 7.45455 10.9346 7.45455 10.9844V12.1094C7.45455 12.1591 7.4737 12.2068 7.5078 12.242C7.5419 12.2771 7.58814 12.2969 7.63636 12.2969H16.3636C16.4119 12.2969 16.4581 12.2771 16.4922 12.242C16.5263 12.2068 16.5455 12.1591 16.5455 12.1094V10.9844C16.5455 10.9346 16.5263 10.887 16.4922 10.8518C16.4581 10.8166 16.4119 10.7969 16.3636 10.7969H7.63636ZM7.63636 13.9844C7.58814 13.9844 7.5419 14.0041 7.5078 14.0393C7.4737 14.0745 7.45455 14.1221 7.45455 14.1719V15.2969C7.45455 15.3466 7.4737 15.3943 7.5078 15.4295C7.5419 15.4646 7.58814 15.4844 7.63636 15.4844H11.8182C11.8664 15.4844 11.9126 15.4646 11.9467 15.4295C11.9808 15.3943 12 15.3466 12 15.2969V14.1719C12 14.1221 11.9808 14.0745 11.9467 14.0393C11.9126 14.0041 11.8664 13.9844 11.8182 13.9844H7.63636Z" fill="#0B486B"/>
</svg>
