<svg width="24" height="24" viewBox="0 0 24 24" fill="none" xmlns="http://www.w3.org/2000/svg">
<path d="M11.9999 8.87582C10.2796 8.87582 8.87565 10.2797 8.87565 12C8.87565 13.7204 10.2796 15.1243 11.9999 15.1243C13.7202 15.1243 15.1241 13.7204 15.1241 12C15.1241 10.2797 13.7202 8.87582 11.9999 8.87582ZM21.3702 12C21.3702 10.7063 21.3819 9.42426 21.3092 8.13286C21.2366 6.63286 20.8944 5.30161 19.7975 4.20473C18.6983 3.10551 17.3694 2.76567 15.8694 2.69301C14.5756 2.62036 13.2936 2.63208 12.0022 2.63208C10.7085 2.63208 9.42643 2.62036 8.13502 2.69301C6.63502 2.76567 5.30377 3.10786 4.2069 4.20473C3.10768 5.30395 2.76784 6.63286 2.69518 8.13286C2.62252 9.42661 2.63424 10.7086 2.63424 12C2.63424 13.2914 2.62252 14.5758 2.69518 15.8672C2.76784 17.3672 3.11002 18.6985 4.2069 19.7954C5.30612 20.8946 6.63502 21.2344 8.13502 21.3071C9.42877 21.3797 10.7108 21.368 12.0022 21.368C13.296 21.368 14.578 21.3797 15.8694 21.3071C17.3694 21.2344 18.7006 20.8922 19.7975 19.7954C20.8967 18.6961 21.2366 17.3672 21.3092 15.8672C21.3842 14.5758 21.3702 13.2938 21.3702 12ZM11.9999 16.8071C9.33971 16.8071 7.19284 14.6602 7.19284 12C7.19284 9.33989 9.33971 7.19301 11.9999 7.19301C14.66 7.19301 16.8069 9.33989 16.8069 12C16.8069 14.6602 14.66 16.8071 11.9999 16.8071ZM17.0038 8.11879C16.3827 8.11879 15.8811 7.61723 15.8811 6.99614C15.8811 6.37504 16.3827 5.87348 17.0038 5.87348C17.6249 5.87348 18.1264 6.37504 18.1264 6.99614C18.1266 7.14362 18.0977 7.28969 18.0413 7.42598C17.985 7.56227 17.9023 7.6861 17.798 7.79039C17.6937 7.89467 17.5699 7.97736 17.4336 8.03371C17.2973 8.09007 17.1513 8.11898 17.0038 8.11879Z" fill="#0B486B"/>
</svg>
