<svg width="24" height="24" viewBox="0 0 24 24" fill="none" xmlns="http://www.w3.org/2000/svg">
<path d="M13.4532 15.5953C13.418 15.5604 13.3704 15.5408 13.3208 15.5408C13.2712 15.5408 13.2236 15.5604 13.1884 15.5953L10.4649 18.3187C9.20398 19.5797 7.07585 19.7133 5.68367 18.3187C4.28914 16.9242 4.42273 14.7984 5.68367 13.5375L8.4071 10.814C8.47976 10.7414 8.47976 10.6219 8.4071 10.5492L7.47429 9.61639C7.43905 9.58149 7.39146 9.56192 7.34187 9.56192C7.29228 9.56192 7.24469 9.58149 7.20945 9.61639L4.48601 12.3398C2.5032 14.3226 2.5032 17.5312 4.48601 19.5117C6.46882 21.4922 9.67742 21.4945 11.6579 19.5117L14.3813 16.7883C14.454 16.7156 14.454 16.5961 14.3813 16.5234L13.4532 15.5953ZM19.5141 4.48592C17.5313 2.50311 14.3227 2.50311 12.3423 4.48592L9.61648 7.20936C9.58159 7.2446 9.56201 7.29219 9.56201 7.34178C9.56201 7.39137 9.58159 7.43896 9.61648 7.4742L10.5469 8.40467C10.6196 8.47733 10.7391 8.47733 10.8118 8.40467L13.5352 5.68123C14.7962 4.42029 16.9243 4.2867 18.3165 5.68123C19.711 7.07576 19.5774 9.20154 18.3165 10.4625L15.593 13.1859C15.5581 13.2212 15.5386 13.2687 15.5386 13.3183C15.5386 13.3679 15.5581 13.4155 15.593 13.4508L16.5259 14.3836C16.5985 14.4562 16.718 14.4562 16.7907 14.3836L19.5141 11.6601C21.4946 9.67733 21.4946 6.46873 19.5141 4.48592ZM14.2993 8.72576C14.2641 8.69087 14.2165 8.67129 14.1669 8.67129C14.1173 8.67129 14.0697 8.69087 14.0344 8.72576L8.72585 14.032C8.69096 14.0673 8.67139 14.1148 8.67139 14.1644C8.67139 14.214 8.69096 14.2616 8.72585 14.2969L9.65398 15.225C9.72664 15.2976 9.84617 15.2976 9.91882 15.225L15.2251 9.91873C15.2977 9.84608 15.2977 9.72654 15.2251 9.65389L14.2993 8.72576Z" fill="#0B486B"/>
</svg>
