<svg width="24" height="24" viewBox="0 0 24 24" fill="none" xmlns="http://www.w3.org/2000/svg">
<path d="M4.80005 4.79999C4.80005 4.16347 5.05291 3.55303 5.50299 3.10294C5.95308 2.65285 6.56353 2.39999 7.20005 2.39999H16.8C17.4366 2.39999 18.047 2.65285 18.4971 3.10294C18.9472 3.55303 19.2 4.16347 19.2 4.79999V21C19.2 21.1085 19.1705 21.215 19.1147 21.3081C19.0589 21.4012 18.9789 21.4774 18.8833 21.5286C18.7876 21.5799 18.6798 21.6042 18.5714 21.599C18.463 21.5938 18.358 21.5593 18.2676 21.4992L12 18.1212L5.73245 21.4992C5.6421 21.5593 5.53713 21.5938 5.42872 21.599C5.32031 21.6042 5.21253 21.5799 5.11685 21.5286C5.02117 21.4774 4.94117 21.4012 4.88539 21.3081C4.8296 21.215 4.8001 21.1085 4.80005 21V4.79999ZM7.20005 3.59999C6.88179 3.59999 6.57656 3.72642 6.35152 3.95147C6.12648 4.17651 6.00005 4.48173 6.00005 4.79999V19.8792L11.6676 16.9008C11.7661 16.8353 11.8818 16.8003 12 16.8003C12.1183 16.8003 12.234 16.8353 12.3324 16.9008L18 19.8792V4.79999C18 4.48173 17.8736 4.17651 17.6486 3.95147C17.4235 3.72642 17.1183 3.59999 16.8 3.59999H7.20005Z" fill="#0B486B"/>
</svg>
