<svg width="24" height="24" viewBox="0 0 24 24" fill="none" xmlns="http://www.w3.org/2000/svg">
<path d="M1 6.66667C1 5.95942 1.28973 5.28115 1.80546 4.78105C2.32118 4.28095 3.02065 4 3.75 4H20.25C20.9793 4 21.6788 4.28095 22.1945 4.78105C22.7103 5.28115 23 5.95942 23 6.66667V8H1V6.66667ZM1 10.6667V17.3333C1 18.0406 1.28973 18.7189 1.80546 19.219C2.32118 19.719 3.02065 20 3.75 20H20.25C20.9793 20 21.6788 19.719 22.1945 19.219C22.7103 18.7189 23 18.0406 23 17.3333V10.6667H1ZM5.125 13.3333H6.5C6.86467 13.3333 7.21441 13.4738 7.47227 13.7239C7.73013 13.9739 7.875 14.313 7.875 14.6667V16C7.875 16.3536 7.73013 16.6928 7.47227 16.9428C7.21441 17.1929 6.86467 17.3333 6.5 17.3333H5.125C4.76033 17.3333 4.41059 17.1929 4.15273 16.9428C3.89487 16.6928 3.75 16.3536 3.75 16V14.6667C3.75 14.313 3.89487 13.9739 4.15273 13.7239C4.41059 13.4738 4.76033 13.3333 5.125 13.3333Z" fill="black"/>
</svg>
