<svg width="24" height="24" viewBox="0 0 24 24" fill="none" xmlns="http://www.w3.org/2000/svg">
<path d="M13.5673 2H7.15154C6.50859 2 5.89197 2.26339 5.43734 2.73223C4.98271 3.20107 4.72729 3.83696 4.72729 4.5V19.5C4.72729 20.163 4.98271 20.7989 5.43734 21.2678C5.89197 21.7366 6.50859 22 7.15154 22H16.8485C17.4915 22 18.1081 21.7366 18.5627 21.2678C19.0173 20.7989 19.2727 20.163 19.2727 19.5V7.88375C19.2727 7.55226 19.1449 7.23437 18.9176 7L14.4243 2.36625C14.197 2.13181 13.8887 2.00007 13.5673 2V2ZM13.8182 6.375V3.875L17.4546 7.625H15.0303C14.7089 7.625 14.4005 7.4933 14.1732 7.25888C13.9459 7.02446 13.8182 6.70652 13.8182 6.375ZM15.4594 11.8175L11.8231 15.5675C11.7668 15.6257 11.6999 15.6719 11.6262 15.7034C11.5526 15.7349 11.4737 15.7511 11.394 15.7511C11.3142 15.7511 11.2353 15.7349 11.1617 15.7034C11.088 15.6719 11.0212 15.6257 10.9649 15.5675L9.14669 13.6925C9.09034 13.6344 9.04564 13.5654 9.01515 13.4895C8.98465 13.4136 8.96895 13.3322 8.96895 13.25C8.96895 13.1678 8.98465 13.0864 9.01515 13.0105C9.04564 12.9346 9.09034 12.8656 9.14669 12.8075C9.26049 12.6901 9.41484 12.6242 9.57578 12.6242C9.65547 12.6242 9.73438 12.6404 9.808 12.6718C9.88163 12.7033 9.94852 12.7494 10.0049 12.8075L11.394 14.2413L14.6012 10.9325C14.715 10.8151 14.8694 10.7492 15.0303 10.7492C15.1913 10.7492 15.3456 10.8151 15.4594 10.9325C15.5732 11.0499 15.6372 11.209 15.6372 11.375C15.6372 11.541 15.5732 11.7001 15.4594 11.8175Z" fill="#0B486B"/>
</svg>
