<svg width="24" height="24" viewBox="0 0 24 24" fill="none" xmlns="http://www.w3.org/2000/svg">
<path d="M9.10024 19.0161L9.10043 19.0159L18.6419 13.4797C18.6424 13.4794 18.643 13.4791 18.6435 13.4788C18.9036 13.3299 19.1199 13.115 19.2703 12.8558C19.4212 12.5961 19.5006 12.3011 19.5006 12.0007C19.5006 11.7004 19.4212 11.4054 19.2704 11.1456L18.8379 11.3967L19.2703 11.1456C19.1199 10.8865 18.9037 10.6716 18.6436 10.5227C18.643 10.5224 18.6425 10.5221 18.6419 10.5217L9.10049 4.98553C9.10047 4.98552 9.10045 4.98551 9.10043 4.9855C7.9704 4.32968 6.5 5.11461 6.5 6.46197V17.538C6.5 18.8874 7.97229 19.6698 9.10024 19.0161Z" fill="#0B486B" stroke="#0B486B"/>
</svg>
