<svg width="24" height="24" viewBox="0 0 24 24" fill="none" xmlns="http://www.w3.org/2000/svg">
<path d="M15.7427 14.343C16.7109 13.0217 17.1446 11.3835 16.957 9.75612C16.7693 8.12878 15.9741 6.63231 14.7304 5.5661C13.4868 4.49989 11.8864 3.94257 10.2495 4.00565C8.61258 4.06872 7.05984 4.74753 5.90192 5.90628C4.74401 7.06502 4.0663 8.61825 4.0044 10.2552C3.9425 11.8922 4.50096 13.4921 5.56806 14.735C6.63516 15.9779 8.1322 16.772 9.75967 16.9586C11.3871 17.1451 13.025 16.7102 14.3457 15.741H14.3447C14.3747 15.781 14.4067 15.819 14.4427 15.856L18.2927 19.706C18.4802 19.8936 18.7345 19.9991 18.9998 19.9992C19.2651 19.9993 19.5195 19.894 19.7072 19.7065C19.8948 19.519 20.0003 19.2646 20.0004 18.9993C20.0005 18.7341 19.8952 18.4796 19.7077 18.292L15.8577 14.442C15.8219 14.4058 15.7835 14.3724 15.7427 14.342V14.343ZM16.0007 10.499C16.0007 11.2212 15.8584 11.9364 15.582 12.6037C15.3056 13.271 14.9005 13.8773 14.3897 14.3881C13.879 14.8988 13.2727 15.3039 12.6054 15.5803C11.9381 15.8567 11.2229 15.999 10.5007 15.999C9.77838 15.999 9.06319 15.8567 8.3959 15.5803C7.7286 15.3039 7.12229 14.8988 6.61157 14.3881C6.10084 13.8773 5.69572 13.271 5.41932 12.6037C5.14292 11.9364 5.00065 11.2212 5.00065 10.499C5.00065 9.04028 5.58012 7.64133 6.61157 6.60988C7.64302 5.57843 9.04196 4.99897 10.5007 4.99897C11.9593 4.99897 13.3583 5.57843 14.3897 6.60988C15.4212 7.64133 16.0007 9.04028 16.0007 10.499Z" fill="#0B486B"/>
</svg>
