<svg width="24" height="24" viewBox="0 0 24 24" fill="none" xmlns="http://www.w3.org/2000/svg">
<path d="M21.5788 6.85504C21.7188 6.39004 21.5788 6.04904 20.9168 6.04904H18.7238C18.1658 6.04904 17.9108 6.34404 17.7708 6.66804C17.7708 6.66804 16.6558 9.38704 15.0758 11.15C14.5658 11.663 14.3328 11.825 14.0548 11.825C13.9158 11.825 13.7138 11.663 13.7138 11.198V6.85504C13.7138 6.29704 13.5528 6.04904 13.0878 6.04904H9.64176C9.29376 6.04904 9.08375 6.30704 9.08375 6.55304C9.08375 7.08104 9.87375 7.20304 9.95475 8.69104V11.919C9.95475 12.626 9.82776 12.755 9.54776 12.755C8.80476 12.755 6.99676 10.026 5.92376 6.90204C5.71476 6.29504 5.50376 6.05004 4.94376 6.05004H2.75176C2.12476 6.05004 1.99976 6.34504 1.99976 6.66904C1.99976 7.25104 2.74276 10.131 5.46076 13.94C7.27276 16.541 9.82375 17.951 12.1478 17.951C13.5408 17.951 13.7128 17.638 13.7128 17.098V15.132C13.7128 14.506 13.8458 14.38 14.2868 14.38C14.6108 14.38 15.1688 14.544 16.4698 15.797C17.9558 17.283 18.2018 17.95 19.0368 17.95H21.2288C21.8548 17.95 22.1678 17.637 21.9878 17.019C21.7908 16.404 21.0808 15.509 20.1388 14.45C19.6268 13.846 18.8618 13.196 18.6288 12.871C18.3038 12.452 18.3978 12.267 18.6288 11.895C18.6298 11.896 21.3008 8.13404 21.5788 6.85504Z" fill="#0B486B"/>
</svg>
