<svg width="24" height="24" viewBox="0 0 24 24" fill="none" xmlns="http://www.w3.org/2000/svg">
<path d="M21.5927 7.20307C21.4788 6.78047 21.2562 6.39507 20.9471 6.08524C20.638 5.7754 20.2531 5.55193 19.8307 5.43707C18.2647 5.00707 11.9997 5.00007 11.9997 5.00007C11.9997 5.00007 5.73572 4.99307 4.16872 5.40407C3.74664 5.52421 3.36254 5.75085 3.05329 6.0622C2.74403 6.37356 2.52 6.75919 2.40272 7.18207C1.98972 8.74807 1.98572 11.9961 1.98572 11.9961C1.98572 11.9961 1.98172 15.2601 2.39172 16.8101C2.62172 17.6671 3.29672 18.3441 4.15472 18.5751C5.73672 19.0051 11.9847 19.0121 11.9847 19.0121C11.9847 19.0121 18.2497 19.0191 19.8157 18.6091C20.2382 18.4944 20.6235 18.2715 20.9334 17.9622C21.2433 17.653 21.4671 17.2683 21.5827 16.8461C21.9967 15.2811 21.9997 12.0341 21.9997 12.0341C21.9997 12.0341 22.0197 8.76907 21.5927 7.20307ZM9.99572 15.0051L10.0007 9.00507L15.2077 12.0101L9.99572 15.0051Z" fill="#0B486B"/>
</svg>
