<svg width="24" height="24" viewBox="0 0 24 24" fill="none" xmlns="http://www.w3.org/2000/svg">
<path d="M21.7133 10.48L19.48 9.81334C19.3256 9.27422 19.1132 8.75341 18.8466 8.26001L19.94 6.21334C19.981 6.13609 19.996 6.04767 19.9828 5.9612C19.9696 5.87473 19.9289 5.79483 19.8666 5.73334L18.2733 4.13334C18.2118 4.07112 18.1319 4.03038 18.0455 4.01717C17.959 4.00396 17.8706 4.01899 17.7933 4.06001L15.76 5.14668C15.2617 4.86712 14.7341 4.64354 14.1866 4.48001L13.52 2.27334C13.4918 2.19202 13.4385 2.12174 13.3678 2.07263C13.2971 2.02351 13.2127 1.99808 13.1266 2.00001H10.8733C10.7867 2.00041 10.7026 2.02843 10.633 2.07999C10.5635 2.13155 10.5122 2.20396 10.4866 2.28668L9.81998 4.48668C9.26799 4.64933 8.73582 4.87293 8.23331 5.15334L6.23331 4.07334C6.15606 4.03232 6.06764 4.0173 5.98117 4.03051C5.8947 4.04372 5.81479 4.08446 5.75331 4.14668L4.13331 5.72668C4.07109 5.78816 4.03035 5.86806 4.01714 5.95453C4.00393 6.041 4.01896 6.12942 4.05998 6.20668L5.13998 8.20668C4.86002 8.70707 4.63643 9.23698 4.47331 9.78668L2.26665 10.4533C2.18393 10.4789 2.11152 10.5302 2.05996 10.5997C2.0084 10.6693 1.98038 10.7534 1.97998 10.84V13.0933C1.98038 13.1799 2.0084 13.2641 2.05996 13.3336C2.11152 13.4032 2.18393 13.4545 2.26665 13.48L4.48665 14.1467C4.65154 14.6872 4.8751 15.2081 5.15331 15.7L4.05998 17.7933C4.01896 17.8706 4.00393 17.959 4.01714 18.0455C4.03035 18.132 4.07109 18.2119 4.13331 18.2733L5.72665 19.8667C5.78813 19.9289 5.86803 19.9696 5.9545 19.9828C6.04097 19.9961 6.12939 19.981 6.20665 19.94L8.26665 18.84C8.75396 19.103 9.26799 19.313 9.79998 19.4667L10.4666 21.7133C10.4922 21.7961 10.5435 21.8685 10.613 21.92C10.6826 21.9716 10.7667 21.9996 10.8533 22H13.1066C13.1932 21.9996 13.2774 21.9716 13.3469 21.92C13.4165 21.8685 13.4678 21.7961 13.4933 21.7133L14.16 19.46C14.6874 19.3056 15.197 19.0955 15.68 18.8333L17.7533 19.94C17.8306 19.981 17.919 19.9961 18.0055 19.9828C18.0919 19.9696 18.1718 19.9289 18.2333 19.8667L19.8266 18.2733C19.8889 18.2119 19.9296 18.132 19.9428 18.0455C19.956 17.959 19.941 17.8706 19.9 17.7933L18.7933 15.7267C19.0582 15.2418 19.2705 14.73 19.4266 14.2L21.6733 13.5333C21.756 13.5078 21.8284 13.4565 21.88 13.387C21.9316 13.3174 21.9596 13.2332 21.96 13.1467V10.8733C21.9639 10.7904 21.9424 10.7083 21.8983 10.638C21.8542 10.5677 21.7897 10.5126 21.7133 10.48ZM12 15.6667C11.2748 15.6667 10.5659 15.4516 9.96289 15.0487C9.35991 14.6458 8.88994 14.0732 8.61242 13.4032C8.3349 12.7332 8.26229 11.9959 8.40377 11.2847C8.54525 10.5734 8.89446 9.92008 9.40725 9.40729C9.92005 8.89449 10.5734 8.54528 11.2846 8.4038C11.9959 8.26232 12.7332 8.33493 13.4032 8.61245C14.0731 8.88997 14.6458 9.35994 15.0487 9.96292C15.4516 10.5659 15.6666 11.2748 15.6666 12C15.6666 12.9725 15.2803 13.9051 14.5927 14.5927C13.9051 15.2804 12.9724 15.6667 12 15.6667Z" fill="#0B486B"/>
</svg>
