<svg width="24" height="24" viewBox="0 0 24 24" fill="none" xmlns="http://www.w3.org/2000/svg">
<path d="M21.5334 6.23333L17.3334 8.6V5.33333C17.3334 4.97971 17.1929 4.64057 16.9428 4.39052C16.6928 4.14048 16.3537 4 16 4H4.00004C3.2928 4 2.61452 4.28095 2.11442 4.78105C1.61433 5.28115 1.33337 5.95942 1.33337 6.66667V17.3333C1.33337 18.0406 1.61433 18.7189 2.11442 19.219C2.61452 19.719 3.2928 20 4.00004 20H16C16.3537 20 16.6928 19.8595 16.9428 19.6095C17.1929 19.3594 17.3334 19.0203 17.3334 18.6667V15.3867L21.5334 17.7533C21.6411 17.8237 21.7655 17.8645 21.894 17.8716C22.0225 17.8787 22.1507 17.8519 22.2655 17.7938C22.3804 17.7357 22.4779 17.6484 22.5483 17.5406C22.6188 17.4329 22.6596 17.3085 22.6667 17.18V6.8C22.6585 6.67205 22.6169 6.5485 22.546 6.44165C22.4751 6.33481 22.3775 6.24841 22.2628 6.19107C22.1482 6.13374 22.0205 6.10747 21.8925 6.11488C21.7645 6.1223 21.6407 6.16314 21.5334 6.23333Z" fill="#0B486B"/>
</svg>
