<svg width="24" height="24" viewBox="0 0 24 24" fill="none" xmlns="http://www.w3.org/2000/svg">
<path d="M18.6666 2.66666H7.99996C7.64634 2.66666 7.3072 2.80713 7.05715 3.05718C6.8071 3.30723 6.66663 3.64637 6.66663 3.99999H18.6666V20H7.99996V13.4667H6.66663V20C6.66663 20.3536 6.8071 20.6928 7.05715 20.9428C7.3072 21.1928 7.64634 21.3333 7.99996 21.3333H18.6666C19.0202 21.3333 19.3594 21.1928 19.6094 20.9428C19.8595 20.6928 20 20.3536 20 20V3.99999C20 3.64637 19.8595 3.30723 19.6094 3.05718C19.3594 2.80713 19.0202 2.66666 18.6666 2.66666Z" fill="black"/>
<path d="M10.08 12.3067C10.0102 12.3664 9.95353 12.44 9.91352 12.5227C9.8735 12.6054 9.85101 12.6955 9.84747 12.7873C9.84392 12.8791 9.85939 12.9707 9.89291 13.0562C9.92642 13.1418 9.97726 13.2195 10.0422 13.2844C10.1072 13.3494 10.1849 13.4002 10.2705 13.4338C10.356 13.4673 10.4476 13.4827 10.5394 13.4792C10.6312 13.4757 10.7213 13.4532 10.804 13.4132C10.8867 13.3731 10.9602 13.3165 11.02 13.2467L14.88 9.38667L11.0267 5.52667C10.8991 5.41745 10.7351 5.36038 10.5673 5.36686C10.3995 5.37334 10.2404 5.4429 10.1216 5.56163C10.0029 5.68036 9.93334 5.83951 9.92686 6.0073C9.92038 6.17508 9.97745 6.33913 10.0867 6.46667L12.3333 8.66667H2.66667C2.48986 8.66667 2.32029 8.73691 2.19526 8.86193C2.07024 8.98695 2 9.15652 2 9.33333C2 9.51015 2.07024 9.67971 2.19526 9.80474C2.32029 9.92976 2.48986 10 2.66667 10H12.3333L10.08 12.3067Z" fill="black"/>
</svg>
