<svg width="24" height="24" viewBox="0 0 24 24" fill="none" xmlns="http://www.w3.org/2000/svg">
<path d="M4.66671 3.99999H15.3334V10.5333H16.6667V3.99999C16.6667 3.64637 16.5262 3.30723 16.2762 3.05718C16.0261 2.80713 15.687 2.66666 15.3334 2.66666H4.66671C4.31309 2.66666 3.97395 2.80713 3.7239 3.05718C3.47385 3.30723 3.33337 3.64637 3.33337 3.99999V20C3.33337 20.3536 3.47385 20.6928 3.7239 20.9428C3.97395 21.1928 4.31309 21.3333 4.66671 21.3333H15.3334C15.687 21.3333 16.0261 21.1928 16.2762 20.9428C16.5262 20.6928 16.6667 20.3536 16.6667 20H4.66671V3.99999Z" fill="black"/>
<path d="M18.7733 11.52C18.6458 11.4108 18.4817 11.3537 18.3139 11.3602C18.1461 11.3667 17.987 11.4362 17.8683 11.5549C17.7495 11.6737 17.68 11.8328 17.6735 12.0006C17.667 12.1684 17.7241 12.3325 17.8333 12.46L20.0866 14.6667H10.42C10.2432 14.6667 10.0736 14.7369 9.94856 14.8619C9.82353 14.9869 9.7533 15.1565 9.7533 15.3333C9.7533 15.5101 9.82353 15.6797 9.94856 15.8047C10.0736 15.9297 10.2432 16 10.42 16H20.0866L17.8333 18.3067C17.7635 18.3664 17.7068 18.44 17.6668 18.5227C17.6268 18.6054 17.6043 18.6955 17.6008 18.7873C17.5972 18.8791 17.6127 18.9707 17.6462 19.0562C17.6797 19.1418 17.7306 19.2195 17.7955 19.2844C17.8605 19.3494 17.9382 19.4002 18.0237 19.4337C18.1093 19.4673 18.2009 19.4827 18.2927 19.4792C18.3845 19.4756 18.4746 19.4532 18.5573 19.4131C18.64 19.3731 18.7135 19.3164 18.7733 19.2467L22.6666 15.38L18.7733 11.52Z" fill="black"/>
</svg>
