<svg width="24" height="24" viewBox="0 0 24 24" fill="none" xmlns="http://www.w3.org/2000/svg">
<path d="M9.63692 5.53845H6.47077C5.94312 5.53845 5.51538 5.96619 5.51538 6.49384V17.5061C5.51538 18.0338 5.94312 18.4615 6.47077 18.4615H9.63692C10.1646 18.4615 10.5923 18.0338 10.5923 17.5061V6.49384C10.5923 5.96619 10.1646 5.53845 9.63692 5.53845Z" fill="white"/>
<path d="M9.63692 5.03845H6.47077C5.66698 5.03845 5.01538 5.69005 5.01538 6.49384V17.5061C5.01538 18.3099 5.66698 18.9615 6.47077 18.9615H9.63692C10.4407 18.9615 11.0923 18.3099 11.0923 17.5061V6.49384C11.0923 5.69005 10.4407 5.03845 9.63692 5.03845Z" stroke="black" stroke-opacity="0.1"/>
<path d="M17.4831 5.53845H14.317C13.7893 5.53845 13.3616 5.96619 13.3616 6.49384V17.5061C13.3616 18.0338 13.7893 18.4615 14.317 18.4615H17.4831C18.0108 18.4615 18.4385 18.0338 18.4385 17.5061V6.49384C18.4385 5.96619 18.0108 5.53845 17.4831 5.53845Z" fill="white"/>
<path d="M17.4831 5.03845H14.317C13.5132 5.03845 12.8616 5.69005 12.8616 6.49384V17.5061C12.8616 18.3099 13.5132 18.9615 14.317 18.9615H17.4831C18.2869 18.9615 18.9385 18.3099 18.9385 17.5061V6.49384C18.9385 5.69005 18.2869 5.03845 17.4831 5.03845Z" stroke="black" stroke-opacity="0.1"/>
</svg>
