<svg width="24" height="24" viewBox="0 0 24 24" fill="none" xmlns="http://www.w3.org/2000/svg">
<path d="M21.7057 6.99965C21.5273 6.70029 21.2717 6.45083 20.964 6.27558C20.6563 6.10034 20.3069 6.0053 19.95 5.99974H6.73021L6.13118 3.73994C6.07066 3.5218 5.93564 3.32992 5.7481 3.19556C5.56056 3.0612 5.33155 2.99227 5.09839 3.00001H3.0328C2.75888 3.00001 2.49619 3.10535 2.3025 3.29287C2.10881 3.48039 2 3.73472 2 3.99992C2 4.26511 2.10881 4.51944 2.3025 4.70696C2.49619 4.89448 2.75888 4.99983 3.0328 4.99983H4.31346L7.16398 15.2589C7.2245 15.477 7.35953 15.6689 7.54707 15.8033C7.73461 15.9376 7.96361 16.0066 8.19678 15.9988H17.4919C17.6827 15.9983 17.8695 15.9466 18.0317 15.8495C18.194 15.7525 18.3253 15.6138 18.4111 15.4489L21.7987 8.88948C21.9455 8.59152 22.0139 8.263 21.9977 7.93324C21.9814 7.60349 21.8812 7.28275 21.7057 6.99965Z" fill="black"/>
<path d="M7.5 21C8.32843 21 9 20.3284 9 19.5C9 18.6716 8.32843 18 7.5 18C6.67157 18 6 18.6716 6 19.5C6 20.3284 6.67157 21 7.5 21Z" fill="black"/>
<path d="M17.5 21C18.3284 21 19 20.3284 19 19.5C19 18.6716 18.3284 18 17.5 18C16.6716 18 16 18.6716 16 19.5C16 20.3284 16.6716 21 17.5 21Z" fill="black"/>
</svg>
