<svg width="24" height="24" viewBox="0 0 24 24" fill="none" xmlns="http://www.w3.org/2000/svg">
<path d="M22.8671 11.3917C20.7958 6.98292 16.6953 4 12 4C7.30475 4 3.20304 6.985 1.1329 11.3921C1.04552 11.5806 1 11.7889 1 12.0002C1 12.2115 1.04552 12.4198 1.1329 12.6083C3.20418 17.0171 7.30475 20 12 20C16.6953 20 20.797 17.015 22.8671 12.6079C22.9545 12.4194 23 12.2111 23 11.9998C23 11.7885 22.9545 11.5802 22.8671 11.3917ZM12 18C10.9122 18 9.84883 17.6481 8.94436 16.9888C8.03989 16.3295 7.33494 15.3925 6.91865 14.2961C6.50237 13.1997 6.39345 11.9933 6.60567 10.8295C6.81789 9.66557 7.34172 8.59647 8.11091 7.75736C8.8801 6.91824 9.8601 6.3468 10.927 6.11529C11.9939 5.88378 13.0998 6.0026 14.1048 6.45672C15.1098 6.91085 15.9687 7.67988 16.5731 8.66658C17.1774 9.65327 17.5 10.8133 17.5 12C17.5004 12.788 17.3583 13.5684 17.0821 14.2966C16.8058 15.0247 16.4007 15.6863 15.8899 16.2435C15.3791 16.8007 14.7726 17.2427 14.1052 17.5441C13.4377 17.8455 12.7224 18.0004 12 18ZM12 8C11.6727 8.00499 11.3476 8.05811 11.0333 8.15792C11.2923 8.54195 11.4166 9.01454 11.3837 9.48998C11.3507 9.96542 11.1626 10.4122 10.8536 10.7494C10.5445 11.0865 10.135 11.2917 9.69914 11.3277C9.26332 11.3636 8.83011 11.228 8.47808 10.9454C8.27763 11.7511 8.31381 12.605 8.58155 13.3871C8.84928 14.1691 9.33508 14.8399 9.97058 15.305C10.6061 15.7701 11.3593 16.006 12.1241 15.9797C12.889 15.9533 13.627 15.666 14.2343 15.158C14.8417 14.6501 15.2877 13.9473 15.5096 13.1483C15.7316 12.3494 15.7183 11.4947 15.4716 10.7044C15.2249 9.91415 14.7573 9.22818 14.1346 8.74305C13.5118 8.25791 12.7652 7.99803 12 8Z" fill="#0B486B"/>
</svg>
