<svg width="24" height="24" viewBox="0 0 24 24" fill="none" xmlns="http://www.w3.org/2000/svg">
<path d="M19 5.75C19 5.55109 18.921 5.36032 18.7803 5.21967C18.6397 5.07902 18.4489 5 18.25 5C18.0511 5 17.8603 5.07902 17.7197 5.21967C17.579 5.36032 17.5 5.55109 17.5 5.75V18.25C17.5 18.4489 17.579 18.6397 17.7197 18.7803C17.8603 18.921 18.0511 19 18.25 19C18.4489 19 18.6397 18.921 18.7803 18.7803C18.921 18.6397 19 18.4489 19 18.25V5.75Z" fill="#0B486B"/>
<path d="M5 6.40099C5.00006 6.17481 5.06148 5.95288 5.17773 5.75885C5.29398 5.56483 5.4607 5.40598 5.66012 5.29925C5.85953 5.19251 6.08417 5.14188 6.3101 5.15275C6.53602 5.16363 6.75476 5.2356 6.943 5.36099L15.341 10.96C15.5122 11.0741 15.6526 11.2288 15.7497 11.4102C15.8467 11.5916 15.8975 11.7942 15.8975 12C15.8975 12.2058 15.8467 12.4083 15.7497 12.5898C15.6526 12.7712 15.5122 12.9258 15.341 13.04L6.943 18.64C6.75469 18.7654 6.53586 18.8374 6.30985 18.8482C6.08384 18.8591 5.85912 18.8084 5.65968 18.7015C5.46023 18.5946 5.29353 18.4357 5.17735 18.2415C5.06117 18.0473 4.99988 17.8253 5 17.599V6.39999V6.40099Z" fill="#0B486B"/>
</svg>
