<svg width="24" height="24" viewBox="0 0 24 24" fill="none" xmlns="http://www.w3.org/2000/svg">
<path fill-rule="evenodd" clip-rule="evenodd" d="M13.9364 20.7941C14.4778 20.3365 14.8398 19.702 14.958 19.003H9.04198C9.16019 19.702 9.52212 20.3365 10.0636 20.7941C10.605 21.2517 11.2911 21.5028 12 21.5028C12.7089 21.5028 13.3949 21.2517 13.9364 20.7941ZM17.3033 4.19969C15.8968 2.79317 13.9891 2.00299 12 2.00299V2.00399C10.0566 2.00408 8.18918 2.75849 6.79108 4.10828C5.39298 5.45807 4.57339 7.29784 4.50498 9.23999L4.49998 9.48999V13.502L3.08498 16.662C3.02026 16.8066 2.99275 16.9652 3.00496 17.1232C3.01717 17.2812 3.06871 17.4336 3.15488 17.5666C3.24106 17.6996 3.35913 17.8089 3.49835 17.8846C3.63757 17.9603 3.79351 18 3.95198 18H14.9996C14.3719 17.1643 14 16.1256 14 15C14 12.2386 16.2386 10 19 10C19.1687 10 19.3355 10.0084 19.5 10.0247V9.50299C19.5 7.51387 18.7098 5.60621 17.3033 4.19969Z" fill="black"/>
<circle cx="19" cy="15" r="3" fill="#F2453D"/>
</svg>
