<svg width="24" height="24" viewBox="0 0 24 24" fill="none" xmlns="http://www.w3.org/2000/svg">
<path d="M18.8571 4.92856V17.5714C18.8569 17.6785 18.8968 17.7818 18.969 17.8609C19.0411 17.9401 19.1403 17.9893 19.2469 17.999C19.3536 18.0087 19.46 17.9781 19.5452 17.9132C19.6304 17.8484 19.6883 17.7539 19.7074 17.6486L19.7142 17.5714V5.99999H20.7857C21.1621 6 21.5248 6.14156 21.8017 6.39657C22.0786 6.65158 22.2495 7.00139 22.2805 7.37656L22.2857 7.49999V17.7857C22.2857 18.4972 22.0135 19.1818 21.5248 19.699C21.0361 20.2162 20.3681 20.5268 19.6577 20.5671L19.4999 20.5714H4.49995C3.7884 20.5715 3.10381 20.2992 2.58661 19.8106C2.0694 19.3219 1.7588 18.6538 1.71852 17.9434L1.71423 17.7857V4.92856C1.71425 4.55211 1.85581 4.18943 2.11082 3.91251C2.36582 3.63559 2.71563 3.46468 3.0908 3.4337L3.21423 3.42856H17.3571C17.7335 3.42857 18.0962 3.57013 18.3731 3.82514C18.6501 4.08015 18.821 4.42996 18.8519 4.80513L18.8571 4.92856V17.5714V4.92856ZM8.35452 11.1463H6.21423C5.83778 11.1463 5.4751 11.2878 5.19818 11.5429C4.92126 11.7979 4.75035 12.1477 4.71938 12.5228L4.71423 12.6463V14.7857C4.71425 15.1621 4.85581 15.5248 5.11082 15.8017C5.36582 16.0787 5.71563 16.2496 6.0908 16.2806L6.21423 16.2857H8.35452C8.7311 16.2857 9.0939 16.144 9.37084 15.8888C9.64778 15.6336 9.8186 15.2836 9.84938 14.9083L9.85366 14.7857V12.6463C9.85386 12.2697 9.7124 11.9068 9.45737 11.6297C9.20234 11.3526 8.85241 11.1815 8.47709 11.1506L8.35452 11.1463ZM15.2142 15H12.2142L12.1268 15.006C11.9729 15.0272 11.8319 15.1033 11.7299 15.2204C11.6278 15.3375 11.5716 15.4875 11.5716 15.6428C11.5716 15.7982 11.6278 15.9482 11.7299 16.0653C11.8319 16.1824 11.9729 16.2585 12.1268 16.2797L12.2142 16.2857H15.2142L15.3017 16.2797C15.4555 16.2585 15.5965 16.1824 15.6986 16.0653C15.8007 15.9482 15.8569 15.7982 15.8569 15.6428C15.8569 15.4875 15.8007 15.3375 15.6986 15.2204C15.5965 15.1033 15.4555 15.0272 15.3017 15.006L15.2142 15ZM6.21423 12.432H8.35452C8.40268 12.432 8.44942 12.4483 8.48721 12.4781C8.525 12.508 8.55163 12.5497 8.5628 12.5966L8.5688 12.6463V14.7857C8.56872 14.834 8.55234 14.8808 8.52232 14.9186C8.49229 14.9564 8.45038 14.983 8.40338 14.994L8.35452 15H6.21423C6.16596 14.9999 6.11912 14.9835 6.08132 14.9535C6.04351 14.9235 6.01695 14.8816 6.00595 14.8346L5.99995 14.7857V12.6463C5.99983 12.5978 6.01613 12.5508 6.04617 12.5128C6.07621 12.4749 6.11823 12.4482 6.16538 12.4371L6.21423 12.432H8.35452H6.21423ZM15.2142 11.1463H12.2142L12.1268 11.1514C11.9723 11.1719 11.8305 11.2478 11.7278 11.365C11.625 11.4823 11.5684 11.6328 11.5684 11.7887C11.5684 11.9446 11.625 12.0951 11.7278 12.2124C11.8305 12.3296 11.9723 12.4055 12.1268 12.426L12.2142 12.432H15.2142L15.3017 12.426C15.4562 12.4055 15.598 12.3296 15.7007 12.2124C15.8034 12.0951 15.8601 11.9446 15.8601 11.7887C15.8601 11.6328 15.8034 11.4823 15.7007 11.365C15.598 11.2478 15.4562 11.1719 15.3017 11.1514L15.2142 11.1463ZM15.2142 7.28313H5.35709L5.26966 7.28913C5.11579 7.3103 4.97479 7.38646 4.87273 7.50353C4.77066 7.6206 4.71443 7.77067 4.71443 7.92599C4.71443 8.0813 4.77066 8.23137 4.87273 8.34844C4.97479 8.46551 5.11579 8.54167 5.26966 8.56284L5.35709 8.56884H15.2142L15.3017 8.56284C15.4555 8.54167 15.5965 8.46551 15.6986 8.34844C15.8007 8.23137 15.8569 8.0813 15.8569 7.92599C15.8569 7.77067 15.8007 7.6206 15.6986 7.50353C15.5965 7.38646 15.4555 7.3103 15.3017 7.28913L15.2142 7.28313Z" fill="black"/>
</svg>
