<svg width="24" height="24" viewBox="0 0 24 24" fill="none" xmlns="http://www.w3.org/2000/svg">
<path d="M4.29175 18.6667C4.29175 18.8877 4.37955 19.0996 4.53583 19.2559C4.69211 19.4122 4.90407 19.5 5.12508 19.5C5.3461 19.5 5.55806 19.4122 5.71434 19.2559C5.87062 19.0996 5.95842 18.8877 5.95842 18.6667V5.33333C5.95842 5.11232 5.87062 4.90036 5.71434 4.74408C5.55806 4.5878 5.3461 4.5 5.12508 4.5C4.90407 4.5 4.69211 4.5878 4.53583 4.74408C4.37955 4.90036 4.29175 5.11232 4.29175 5.33333V18.6667Z" fill="#0B486B"/>
<path d="M19.2917 17.8775C19.2917 19.0642 17.9484 19.7542 16.9834 19.0625L8.25841 12.8067C8.06498 12.6679 7.90845 12.484 7.80249 12.2708C7.69653 12.0577 7.64435 11.8218 7.65051 11.5838C7.65668 11.3459 7.721 11.1131 7.83785 10.9057C7.95471 10.6983 8.12056 10.5227 8.32091 10.3942L17.0459 4.79749C18.0167 4.17416 19.2917 4.87166 19.2917 6.02499V17.8775Z" fill="#0B486B"/>
</svg>
