<svg width="24" height="24" viewBox="0 0 24 24" fill="none" xmlns="http://www.w3.org/2000/svg">
<path d="M21.6094 16.3594L20.0156 15.4387C20.304 15.1417 20.6348 14.889 20.9972 14.6887C21.2341 14.5552 21.4086 14.3334 21.4828 14.0718C21.557 13.8101 21.5249 13.5297 21.3933 13.2917C21.2618 13.0536 21.0415 12.8772 20.7805 12.8007C20.5195 12.7243 20.2388 12.7541 19.9997 12.8836C19.3077 13.2666 18.6946 13.7771 18.1926 14.3883L14.0625 12L18.1917 9.61594C18.6935 10.2272 19.3067 10.7378 19.9987 11.1206C20.1174 11.1875 20.248 11.2302 20.3832 11.2463C20.5185 11.2624 20.6555 11.2516 20.7865 11.2144C20.9175 11.1773 21.0399 11.1146 21.1465 11.0299C21.2531 10.9452 21.342 10.8403 21.4078 10.7211C21.4737 10.6019 21.5153 10.4709 21.5302 10.3355C21.5452 10.2002 21.5332 10.0632 21.4949 9.93252C21.4566 9.80184 21.3929 9.68003 21.3073 9.57412C21.2217 9.46821 21.116 9.38031 20.9962 9.31547C20.6339 9.11513 20.3032 8.86241 20.0147 8.56547L21.6084 7.64484C21.7303 7.57967 21.8379 7.49064 21.9247 7.38307C22.0115 7.27549 22.0758 7.15156 22.1138 7.01864C22.1518 6.88572 22.1626 6.74652 22.1457 6.60932C22.1288 6.47212 22.0845 6.33972 22.0154 6.21999C21.9463 6.10025 21.8539 5.99563 21.7435 5.91235C21.6332 5.82906 21.5072 5.76881 21.3732 5.73516C21.2391 5.70152 21.0996 5.69518 20.963 5.71652C20.8264 5.73786 20.6955 5.78644 20.5781 5.85938L18.9844 6.77953C18.8708 6.38106 18.8168 5.96801 18.824 5.55375C18.827 5.41808 18.8032 5.28316 18.754 5.15672C18.7047 5.03028 18.631 4.9148 18.537 4.81691C18.443 4.71901 18.3306 4.64063 18.2063 4.58625C18.082 4.53187 17.9482 4.50256 17.8125 4.5H17.7933C17.5231 4.49995 17.2636 4.60596 17.0708 4.79522C16.8779 4.98448 16.7671 5.24187 16.762 5.51203C16.7475 6.30229 16.8827 7.08815 17.1605 7.82812L13.0312 10.2136V5.44594C13.8114 5.317 14.5601 5.04135 15.2376 4.63359C15.4719 4.49243 15.6405 4.26398 15.7064 3.9985C15.7722 3.73301 15.7299 3.45225 15.5887 3.21797C15.4476 2.98369 15.2191 2.81508 14.9536 2.74924C14.6882 2.68339 14.4074 2.72571 14.1731 2.86687C13.818 3.08033 13.4332 3.24003 13.0312 3.34078V1.78125C13.0312 1.50775 12.9226 1.24544 12.7292 1.05205C12.5358 0.858649 12.2735 0.75 12 0.75C11.7265 0.75 11.4642 0.858649 11.2708 1.05205C11.0774 1.24544 10.9687 1.50775 10.9687 1.78125V3.34078C10.5668 3.24003 10.182 3.08033 9.82686 2.86687C9.59258 2.72571 9.31181 2.68339 9.04633 2.74924C8.78085 2.81508 8.5524 2.98369 8.41123 3.21797C8.27007 3.45225 8.22775 3.73301 8.29359 3.9985C8.35944 4.26398 8.52804 4.49243 8.76233 4.63359C9.43986 5.04135 10.1885 5.317 10.9687 5.44594V10.2136L6.83951 7.82812C7.11772 7.08792 7.25323 6.30172 7.23889 5.51109C7.23385 5.24093 7.12298 4.98354 6.93013 4.79428C6.73728 4.60502 6.47784 4.49902 6.20764 4.49906H6.18748C6.05205 4.50156 5.91844 4.53072 5.79427 4.58487C5.67011 4.63902 5.55783 4.7171 5.46385 4.81465C5.36987 4.9122 5.29603 5.02731 5.24655 5.1534C5.19706 5.27949 5.1729 5.4141 5.17545 5.54953C5.18301 5.96439 5.12914 6.37809 5.01561 6.77719L3.42186 5.85938C3.30449 5.78937 3.17439 5.74338 3.0391 5.7241C2.90381 5.70481 2.76603 5.71261 2.63378 5.74703C2.50153 5.78145 2.37744 5.84182 2.26872 5.92462C2.16001 6.00742 2.06883 6.111 2.0005 6.22935C1.93216 6.34769 1.88803 6.47844 1.87066 6.61399C1.8533 6.74954 1.86305 6.88719 1.89935 7.01894C1.93564 7.15068 1.99777 7.27391 2.0821 7.38144C2.16644 7.48897 2.2713 7.57866 2.39061 7.64531L3.98436 8.56594C3.69586 8.86288 3.36511 9.1156 3.00279 9.31594C2.88305 9.38077 2.77734 9.46868 2.69175 9.57459C2.60616 9.6805 2.5424 9.80231 2.50413 9.93299C2.46587 10.0637 2.45386 10.2006 2.46881 10.336C2.48375 10.4713 2.52536 10.6024 2.59122 10.7215C2.65707 10.8407 2.74588 10.9457 2.85252 11.0304C2.95915 11.115 3.0815 11.1778 3.2125 11.2149C3.34351 11.2521 3.48057 11.2629 3.61578 11.2468C3.75099 11.2307 3.88168 11.188 4.00029 11.1211C4.69223 10.7381 5.30538 10.2276 5.80733 9.61641L9.93748 12L5.80826 14.3841C5.30632 13.7729 4.69317 13.2624 4.00123 12.8794C3.88262 12.8125 3.75193 12.7698 3.61672 12.7537C3.48151 12.7376 3.34445 12.7484 3.21344 12.7856C3.08244 12.8227 2.96009 12.8854 2.85345 12.9701C2.74682 13.0548 2.65801 13.1597 2.59215 13.2789C2.52629 13.3981 2.48469 13.5291 2.46975 13.6645C2.4548 13.7998 2.4668 13.9368 2.50507 14.0675C2.54333 14.1982 2.6071 14.32 2.69269 14.4259C2.77828 14.5318 2.88399 14.6197 3.00373 14.6845C3.36604 14.8849 3.6968 15.1376 3.98529 15.4345L2.39061 16.3594C2.2713 16.426 2.16644 16.5157 2.0821 16.6233C1.99777 16.7308 1.93564 16.854 1.89935 16.9858C1.86305 17.1175 1.8533 17.2551 1.87066 17.3907C1.88803 17.5262 1.93216 17.657 2.0005 17.7753C2.06883 17.8937 2.16001 17.9973 2.26872 18.0801C2.37744 18.1629 2.50153 18.2232 2.63378 18.2577C2.76603 18.2921 2.90381 18.2999 3.0391 18.2806C3.17439 18.2613 3.30449 18.2153 3.42186 18.1453L5.01561 17.2252C5.12912 17.6236 5.18314 18.0367 5.17592 18.4509C5.17115 18.7241 5.275 18.9881 5.46466 19.1847C5.65432 19.3814 5.91429 19.4948 6.18748 19.5H6.2067C6.47691 19.5 6.73634 19.394 6.92919 19.2048C7.12205 19.0155 7.23291 18.7581 7.23795 18.488C7.25247 17.6977 7.11728 16.9118 6.83951 16.1719L10.9687 13.7864V18.5541C10.1885 18.683 9.43986 18.9587 8.76233 19.3664C8.52804 19.5076 8.35944 19.736 8.29359 20.0015C8.22775 20.267 8.27007 20.5478 8.41123 20.782C8.5524 21.0163 8.78085 21.1849 9.04633 21.2508C9.31181 21.3166 9.59258 21.2743 9.82686 21.1331C10.182 20.9197 10.5668 20.76 10.9687 20.6592V22.2188C10.9687 22.4923 11.0774 22.7546 11.2708 22.948C11.4642 23.1413 11.7265 23.25 12 23.25C12.2735 23.25 12.5358 23.1413 12.7292 22.948C12.9226 22.7546 13.0312 22.4923 13.0312 22.2188V20.6592C13.4332 20.76 13.818 20.9197 14.1731 21.1331C14.4074 21.2743 14.6882 21.3166 14.9536 21.2508C15.2191 21.1849 15.4476 21.0163 15.5887 20.782C15.7299 20.5478 15.7722 20.267 15.7064 20.0015C15.6405 19.736 15.4719 19.5076 15.2376 19.3664C14.5601 18.9587 13.8114 18.683 13.0312 18.5541V13.7864L17.1605 16.1719C16.8822 16.9121 16.7467 17.6983 16.7611 18.4889C16.7661 18.7591 16.877 19.0165 17.0698 19.2057C17.2627 19.395 17.5221 19.501 17.7923 19.5009H17.8125C17.9479 19.4984 18.0815 19.4693 18.2057 19.4151C18.3299 19.361 18.4421 19.2829 18.5361 19.1854C18.6301 19.0878 18.7039 18.9727 18.7534 18.8466C18.8029 18.7205 18.8271 18.5859 18.8245 18.4505C18.817 18.0356 18.8708 17.6219 18.9844 17.2228L20.5781 18.143C20.6955 18.2183 20.8269 18.2691 20.9644 18.2922C21.102 18.3153 21.2428 18.3103 21.3783 18.2774C21.5139 18.2446 21.6413 18.1845 21.753 18.101C21.8647 18.0175 21.9583 17.9121 22.0281 17.7914C22.0979 17.6707 22.1425 17.537 22.1592 17.3985C22.1758 17.2601 22.1643 17.1197 22.1251 16.9858C22.086 16.8519 22.0201 16.7274 21.9314 16.6197C21.8428 16.5121 21.7332 16.4235 21.6094 16.3594Z" fill="#0B486B"/>
</svg>
