<svg width="24" height="24" viewBox="0 0 24 24" fill="none" xmlns="http://www.w3.org/2000/svg">
<path d="M17.5 13C20 13 22 15 22 17.5C22 20 20 22 17.5 22C15 22 13 20 13 17.5C13 15 15 13 17.5 13ZM17.5 14.5C16.94 14.5 16.42 14.65 16 14.92L20.08 19C20.35 18.58 20.5 18.06 20.5 17.5C20.5 16.7043 20.1839 15.9413 19.6213 15.3787C19.0587 14.8161 18.2956 14.5 17.5 14.5ZM14.5 17.5C14.5 18.2956 14.8161 19.0587 15.3787 19.6213C15.9413 20.1839 16.7043 20.5 17.5 20.5C18.06 20.5 18.58 20.35 19 20.08L14.92 16C14.65 16.42 14.5 16.94 14.5 17.5ZM18.5 1.14999C19 1.14999 19.5 1.33999 19.89 1.72999L22.73 4.55999C23.5 5.34999 23.5 6.60999 22.73 7.38999L18.95 11.16C17.6836 10.8743 16.3608 10.9717 15.15 11.44L11.26 7.54999L17.07 1.72999C17.46 1.33999 17.97 1.14999 18.5 1.14999ZM10.3 8.49999L13.89 12.1C13.0008 12.6925 12.2717 13.4954 11.7676 14.4374C11.2634 15.3795 10.9997 16.4315 11 17.5C11 18 11.06 18.5 11.16 18.95L9.99998 20.12C9.21998 20.89 7.96998 20.9 7.18998 20.14L6.32998 21H0.669983L4.35998 17.31C3.55998 16.5 3.55998 15.24 4.33998 14.46L10.3 8.49999Z" fill="#0B486B"/>
</svg>
