<svg width="18" height="20" viewBox="0 0 18 20" fill="none" xmlns="http://www.w3.org/2000/svg">
<path d="M6.04204 17.0031H11.958C11.8398 17.702 11.4779 18.3366 10.9364 18.7942C10.395 19.2518 9.70896 19.5028 9.00004 19.5028C8.29112 19.5028 7.60511 19.2518 7.06364 18.7942C6.52218 18.3366 6.16025 17.702 6.04204 17.0031V17.0031ZM9.00004 0.00305176C10.9892 0.00305176 12.8968 0.793228 14.3033 2.19975C15.7099 3.60627 16.5 5.51393 16.5 7.50305V11.5031L17.918 14.6631C17.9825 14.8076 18.0099 14.9659 17.9976 15.1237C17.9853 15.2815 17.9338 15.4337 17.8478 15.5665C17.7618 15.6993 17.6439 15.8086 17.5049 15.8843C17.366 15.96 17.2103 15.9998 17.052 16.0001H0.952044C0.793575 16 0.637631 15.9604 0.49841 15.8847C0.35919 15.809 0.241116 15.6996 0.154942 15.5667C0.0687672 15.4337 0.0172292 15.2812 0.00502084 15.1232C-0.00718746 14.9652 0.0203219 14.8067 0.0850437 14.6621L1.50004 11.5021V7.49005L1.50504 7.24005C1.57345 5.2979 2.39304 3.45813 3.79114 2.10834C5.18924 0.758554 7.05669 0.00414293 9.00004 0.00405169V0.00305176Z" fill="#C5D7E0"/>
</svg>
