<svg width="22" height="18" viewBox="0 0 22 18" fill="none" xmlns="http://www.w3.org/2000/svg">
<g clip-path="url(#clip0_1899_2709)">
<path d="M5.01501 0.939941H1.26501C0.921265 0.939941 0.640015 1.23994 0.640015 1.60661V16.2733C0.640015 16.6399 0.921265 16.9399 1.26501 16.9399H5.01501C5.35876 16.9399 5.64001 16.6399 5.64001 16.2733V1.60661C5.64001 1.23994 5.35876 0.939941 5.01501 0.939941ZM4.39001 4.93994H1.89001V3.60661H4.39001V4.93994Z" fill="white"/>
<path d="M11.015 0.939941H7.26501C6.92126 0.939941 6.64001 1.23994 6.64001 1.60661V16.2733C6.64001 16.6399 6.92126 16.9399 7.26501 16.9399H11.015C11.3588 16.9399 11.64 16.6399 11.64 16.2733V1.60661C11.64 1.23994 11.3588 0.939941 11.015 0.939941ZM10.39 4.93994H7.89001V3.60661H10.39V4.93994Z" fill="white"/>
<path d="M16.2958 2.13564L12.7343 3.30969C12.4079 3.41731 12.2229 3.75467 12.3234 4.05937L16.3921 16.5054C16.4926 16.8101 16.8419 16.9713 17.1683 16.8637L20.7298 15.6897C21.0563 15.582 21.2412 15.2447 21.1407 14.94L17.072 2.49398C16.9716 2.18927 16.6223 2.02802 16.2958 2.13564ZM16.798 5.65536L14.4237 6.43806L14.0584 5.33005L16.4327 4.54735L16.798 5.65536Z" fill="white"/>
</g>
<defs>
<clipPath id="clip0_1899_2709">
<rect width="20.7141" height="16.1194" fill="white" transform="translate(0.640015 0.939941)"/>
</clipPath>
</defs>
</svg>
