<svg width="130" height="23" viewBox="0 0 130 23" fill="none" xmlns="http://www.w3.org/2000/svg">
<path d="M4.40234 12.2109V18H0.289062V0.9375H7.09766C8.40234 0.9375 9.55469 1.17969 10.5547 1.66406C11.5625 2.14063 12.3398 2.82422 12.8867 3.71484C13.4414 4.59766 13.7188 5.60156 13.7188 6.72656C13.7188 8.39062 13.1211 9.72266 11.9258 10.7227C10.7383 11.7148 9.10547 12.2109 7.02734 12.2109H4.40234ZM4.40234 9.03516H7.09766C7.89453 9.03516 8.5 8.83594 8.91406 8.4375C9.33594 8.03906 9.54688 7.47656 9.54688 6.75C9.54688 5.95312 9.33203 5.31641 8.90234 4.83984C8.47266 4.36328 7.88672 4.12109 7.14453 4.11328H4.40234V9.03516ZM22.7422 18C22.6016 17.7422 22.4766 17.3633 22.3672 16.8633C21.6406 17.7773 20.625 18.2344 19.3203 18.2344C18.125 18.2344 17.1094 17.875 16.2734 17.1562C15.4375 16.4297 15.0195 15.5195 15.0195 14.4258C15.0195 13.0508 15.5273 12.0117 16.543 11.3086C17.5586 10.6055 19.0352 10.2539 20.9727 10.2539H22.1914V9.58594C22.1914 8.42188 21.6875 7.83984 20.6797 7.83984C19.7422 7.83984 19.2734 8.30078 19.2734 9.22266H15.3242C15.3242 7.99609 15.8438 7 16.8828 6.23438C17.9297 5.46875 19.2617 5.08594 20.8789 5.08594C22.4961 5.08594 23.7734 5.48047 24.7109 6.26953C25.6484 7.05859 26.1289 8.14062 26.1523 9.51562V15.1289C26.168 16.293 26.3477 17.1836 26.6914 17.8008V18H22.7422ZM20.2695 15.4219C20.7617 15.4219 21.168 15.3164 21.4883 15.1055C21.8164 14.8945 22.0508 14.6562 22.1914 14.3906V12.3633H21.043C19.668 12.3633 18.9805 12.9805 18.9805 14.2148C18.9805 14.5742 19.1016 14.8672 19.3438 15.0938C19.5859 15.3125 19.8945 15.4219 20.2695 15.4219ZM36.0195 8.89453L34.7188 8.80078C33.4766 8.80078 32.6797 9.19141 32.3281 9.97266V18H28.3789V5.32031H32.082L32.2109 6.94922C32.875 5.70703 33.8008 5.08594 34.9883 5.08594C35.4102 5.08594 35.7773 5.13281 36.0898 5.22656L36.0195 8.89453ZM42.6289 2.16797V5.32031H44.7148V8.0625H42.6289V13.8633C42.6289 14.3398 42.7148 14.6719 42.8867 14.8594C43.0586 15.0469 43.3984 15.1406 43.9062 15.1406C44.2969 15.1406 44.625 15.1172 44.8906 15.0703V17.8945C44.1797 18.1211 43.4375 18.2344 42.6641 18.2344C41.3047 18.2344 40.3008 17.9141 39.6523 17.2734C39.0039 16.6328 38.6797 15.6602 38.6797 14.3555V8.0625H37.0625V5.32031H38.6797V2.16797H42.6289ZM53.4219 18C53.2812 17.7422 53.1562 17.3633 53.0469 16.8633C52.3203 17.7773 51.3047 18.2344 50 18.2344C48.8047 18.2344 47.7891 17.875 46.9531 17.1562C46.1172 16.4297 45.6992 15.5195 45.6992 14.4258C45.6992 13.0508 46.207 12.0117 47.2227 11.3086C48.2383 10.6055 49.7148 10.2539 51.6523 10.2539H52.8711V9.58594C52.8711 8.42188 52.3672 7.83984 51.3594 7.83984C50.4219 7.83984 49.9531 8.30078 49.9531 9.22266H46.0039C46.0039 7.99609 46.5234 7 47.5625 6.23438C48.6094 5.46875 49.9414 5.08594 51.5586 5.08594C53.1758 5.08594 54.4531 5.48047 55.3906 6.26953C56.3281 7.05859 56.8086 8.14062 56.832 9.51562V15.1289C56.8477 16.293 57.0273 17.1836 57.3711 17.8008V18H53.4219ZM50.9492 15.4219C51.4414 15.4219 51.8477 15.3164 52.168 15.1055C52.4961 14.8945 52.7305 14.6562 52.8711 14.3906V12.3633H51.7227C50.3477 12.3633 49.6602 12.9805 49.6602 14.2148C49.6602 14.5742 49.7812 14.8672 50.0234 15.0938C50.2656 15.3125 50.5742 15.4219 50.9492 15.4219ZM70.6367 18.2344C69.5586 18.2344 68.582 17.9688 67.707 17.4375C66.8398 16.9062 66.1641 16.168 65.6797 15.2227C65.1953 14.2695 64.9531 13.2031 64.9531 12.0234V11.5195C64.9531 10.3008 65.1875 9.20312 65.6562 8.22656C66.1328 7.25 66.793 6.48438 67.6367 5.92969C68.4805 5.36719 69.3945 5.08594 70.3789 5.08594C71.918 5.08594 73.1367 5.61328 74.0352 6.66797C74.9414 7.71484 75.3945 9.14844 75.3945 10.9688V11.7539H66.3477V12.0234C66.3477 13.4609 66.7578 14.6602 67.5781 15.6211C68.4062 16.5742 69.4453 17.0508 70.6953 17.0508C71.4453 17.0508 72.1055 16.9141 72.6758 16.6406C73.2539 16.3672 73.7773 15.9297 74.2461 15.3281L75.125 15.9961C74.0938 17.4883 72.5977 18.2344 70.6367 18.2344ZM70.3789 6.28125C69.3242 6.28125 68.4336 6.66797 67.707 7.44141C66.9883 8.21484 66.5508 9.25391 66.3945 10.5586H74V10.4062C73.9609 9.1875 73.6133 8.19531 72.957 7.42969C72.3008 6.66406 71.4414 6.28125 70.3789 6.28125ZM88.1094 13.8047C88.1094 12.8594 87.7773 12.1133 87.1133 11.5664C86.4492 11.0117 85.2344 10.4883 83.4688 9.99609C81.7031 9.49609 80.4141 8.95312 79.6016 8.36719C78.4453 7.53906 77.8672 6.45312 77.8672 5.10938C77.8672 3.80469 78.4023 2.74609 79.4727 1.93359C80.5508 1.11328 81.9258 0.703125 83.5977 0.703125C84.7305 0.703125 85.7422 0.921875 86.6328 1.35938C87.5312 1.79687 88.2266 2.40625 88.7188 3.1875C89.2109 3.96875 89.457 4.83984 89.457 5.80078H88.0039C88.0039 4.63672 87.6055 3.70312 86.8086 3C86.0117 2.28906 84.9414 1.93359 83.5977 1.93359C82.293 1.93359 81.2539 2.22656 80.4805 2.8125C79.707 3.39062 79.3203 4.14844 79.3203 5.08594C79.3203 5.95312 79.668 6.66016 80.3633 7.20703C81.0586 7.75391 82.1719 8.23828 83.7031 8.66016C85.2344 9.07422 86.3945 9.50781 87.1836 9.96094C87.9727 10.4062 88.5664 10.9414 88.9648 11.5664C89.3633 12.1914 89.5625 12.9297 89.5625 13.7812C89.5625 15.125 89.0234 16.2031 87.9453 17.0156C86.875 17.8281 85.4609 18.2344 83.7031 18.2344C82.5 18.2344 81.3945 18.0195 80.3867 17.5898C79.3867 17.1602 78.625 16.5586 78.1016 15.7852C77.5859 15.0117 77.3281 14.125 77.3281 13.125H78.7695C78.7695 14.3281 79.2188 15.2773 80.1172 15.9727C81.0156 16.668 82.2109 17.0156 83.7031 17.0156C85.0312 17.0156 86.0977 16.7227 86.9023 16.1367C87.707 15.5508 88.1094 14.7734 88.1094 13.8047ZM93.7461 7.46484C94.207 6.70703 94.7969 6.12109 95.5156 5.70703C96.2344 5.29297 97.0195 5.08594 97.8711 5.08594C99.2305 5.08594 100.242 5.46875 100.906 6.23438C101.57 7 101.906 8.14844 101.914 9.67969V18H100.52V9.66797C100.512 8.53516 100.27 7.69141 99.793 7.13672C99.3242 6.58203 98.5703 6.30469 97.5312 6.30469C96.6641 6.30469 95.8945 6.57812 95.2227 7.125C94.5586 7.66406 94.0664 8.39453 93.7461 9.31641V18H92.3516V0H93.7461V7.46484ZM104.75 11.4727C104.75 10.2539 104.984 9.15625 105.453 8.17969C105.93 7.20312 106.598 6.44531 107.457 5.90625C108.324 5.35938 109.305 5.08594 110.398 5.08594C112.086 5.08594 113.453 5.67969 114.5 6.86719C115.547 8.04688 116.07 9.61328 116.07 11.5664V11.8594C116.07 13.0859 115.832 14.1914 115.355 15.1758C114.887 16.1523 114.223 16.9062 113.363 17.4375C112.504 17.9688 111.523 18.2344 110.422 18.2344C108.742 18.2344 107.375 17.6445 106.32 16.4648C105.273 15.2773 104.75 13.707 104.75 11.7539V11.4727ZM106.156 11.8594C106.156 13.375 106.547 14.6211 107.328 15.5977C108.117 16.5664 109.148 17.0508 110.422 17.0508C111.688 17.0508 112.711 16.5664 113.492 15.5977C114.281 14.6211 114.676 13.3359 114.676 11.7422V11.4727C114.676 10.5039 114.496 9.61719 114.137 8.8125C113.777 8.00781 113.273 7.38672 112.625 6.94922C111.977 6.50391 111.234 6.28125 110.398 6.28125C109.148 6.28125 108.129 6.77344 107.34 7.75781C106.551 8.73438 106.156 10.0156 106.156 11.6016V11.8594ZM129.172 11.7891C129.172 13.7656 128.734 15.3359 127.859 16.5C126.984 17.6562 125.812 18.2344 124.344 18.2344C122.609 18.2344 121.281 17.625 120.359 16.4062V22.875H118.965V5.32031H120.266L120.336 7.11328C121.25 5.76172 122.574 5.08594 124.309 5.08594C125.824 5.08594 127.012 5.66016 127.871 6.80859C128.738 7.95703 129.172 9.55078 129.172 11.5898V11.7891ZM127.766 11.543C127.766 9.92578 127.434 8.64844 126.77 7.71094C126.105 6.77344 125.18 6.30469 123.992 6.30469C123.133 6.30469 122.395 6.51172 121.777 6.92578C121.16 7.33984 120.688 7.94141 120.359 8.73047V14.8125C120.695 15.5391 121.176 16.0938 121.801 16.4766C122.426 16.8594 123.164 17.0508 124.016 17.0508C125.195 17.0508 126.113 16.582 126.77 15.6445C127.434 14.6992 127.766 13.332 127.766 11.543Z" fill="white"/>
</svg>
