<svg width="40" height="40" viewBox="0 0 40 40" fill="none" xmlns="http://www.w3.org/2000/svg">
<path d="M0 20C0 8.95431 8.95431 0 20 0C31.0457 0 40 8.95431 40 20C40 31.0457 31.0457 40 20 40C8.95431 40 0 31.0457 0 20Z" fill="white"/>
<path d="M28.121 25.8969C27.6789 24.8496 27.0373 23.8984 26.232 23.0961C25.4291 22.2915 24.478 21.65 23.4312 21.207C23.4218 21.2023 23.4124 21.2 23.4031 21.1953C24.8632 20.1406 25.8124 18.4227 25.8124 16.4844C25.8124 13.2734 23.2109 10.6719 19.9999 10.6719C16.789 10.6719 14.1874 13.2734 14.1874 16.4844C14.1874 18.4227 15.1367 20.1406 16.5968 21.1977C16.5874 21.2023 16.5781 21.2047 16.5687 21.2094C15.5187 21.6523 14.5765 22.2875 13.7679 23.0984C12.9633 23.9013 12.3218 24.8524 11.8788 25.8992C11.4437 26.924 11.209 28.0228 11.1874 29.1359C11.1868 29.161 11.1912 29.1858 11.2003 29.2091C11.2095 29.2324 11.2232 29.2537 11.2407 29.2716C11.2581 29.2895 11.279 29.3037 11.3021 29.3134C11.3251 29.3231 11.3499 29.3281 11.3749 29.3281H12.7812C12.8843 29.3281 12.9663 29.2461 12.9687 29.1453C13.0156 27.3359 13.7421 25.6414 15.0265 24.357C16.3554 23.0281 18.1202 22.2969 19.9999 22.2969C21.8796 22.2969 23.6445 23.0281 24.9734 24.357C26.2578 25.6414 26.9843 27.3359 27.0312 29.1453C27.0335 29.2484 27.1156 29.3281 27.2187 29.3281H28.6249C28.65 29.3281 28.6747 29.3231 28.6978 29.3134C28.7208 29.3037 28.7417 29.2895 28.7592 29.2716C28.7767 29.2537 28.7904 29.2324 28.7995 29.2091C28.8087 29.1858 28.8131 29.161 28.8124 29.1359C28.789 28.0156 28.557 26.9258 28.121 25.8969ZM19.9999 20.5156C18.9242 20.5156 17.9117 20.0961 17.1499 19.3344C16.3882 18.5727 15.9687 17.5602 15.9687 16.4844C15.9687 15.4086 16.3882 14.3961 17.1499 13.6344C17.9117 12.8727 18.9242 12.4531 19.9999 12.4531C21.0757 12.4531 22.0882 12.8727 22.8499 13.6344C23.6117 14.3961 24.0312 15.4086 24.0312 16.4844C24.0312 17.5602 23.6117 18.5727 22.8499 19.3344C22.0882 20.0961 21.0757 20.5156 19.9999 20.5156Z" fill="#4D6E7D"/>
</svg>
